REM DIRINDEX 1\2,1\3,1\4,1\5
REM DIRNAME "folder01","folder02","folder03","folder04","folder05"
TITLE ""
FILE "1Q_t_0049-0058.mp3" MP3
  TRACK 01 AUDIO
    TITLE "3:cjc172_1055"
    INDEX 01 00:00:00
  TRACK 02 AUDIO
    TITLE "0:"
    INDEX 01 00:01:18
  TRACK 03 AUDIO
    TITLE "4:cjc172_1056"
    INDEX 01 00:01:33
  TRACK 04 AUDIO
    TITLE "0:"
    INDEX 01 00:02:54
  TRACK 05 AUDIO
    TITLE "5:cjc172_1057"
    INDEX 01 00:02:70
  TRACK 06 AUDIO
    TITLE "0:"
    INDEX 01 00:07:30
  TRACK 07 AUDIO
    TITLE "3:cjc172_1058"
    INDEX 01 00:08:10
  TRACK 08 AUDIO
    TITLE "0:"
    INDEX 01 00:09:19
  TRACK 09 AUDIO
    TITLE "4:cjc172_1059"
    INDEX 01 00:09:35
  TRACK 10 AUDIO
    TITLE "0:"
    INDEX 01 00:11:53
  TRACK 11 AUDIO
    TITLE "5:cjc172_1060"
    INDEX 01 00:11:71
  TRACK 12 AUDIO
    TITLE "0:"
    INDEX 01 00:16:72
  TRACK 13 AUDIO
    TITLE "3:cjc172_1061"
    INDEX 01 00:17:50
  TRACK 14 AUDIO
    TITLE "0:"
    INDEX 01 00:19:02
  TRACK 15 AUDIO
    TITLE "4:cjc172_1062"
    INDEX 01 00:19:19
  TRACK 16 AUDIO
    TITLE "0:"
    INDEX 01 00:20:44
  TRACK 17 AUDIO
    TITLE "5:cjc172_1063"
    INDEX 01 00:20:62
  TRACK 18 AUDIO
    TITLE "0:"
    INDEX 01 00:29:08
  TRACK 19 AUDIO
    TITLE "3:cjc172_1064"
    INDEX 01 00:29:61
  TRACK 20 AUDIO
    TITLE "0:"
    INDEX 01 00:31:01
  TRACK 21 AUDIO
    TITLE "4:cjc172_1065"
    INDEX 01 00:31:17
  TRACK 22 AUDIO
    TITLE "0:"
    INDEX 01 00:33:39
  TRACK 23 AUDIO
    TITLE "5:cjc172_1066"
    INDEX 01 00:33:55
  TRACK 24 AUDIO
    TITLE "0:"
    INDEX 01 00:38:27
  TRACK 25 AUDIO
    TITLE "3:cjc172_1067"
    INDEX 01 00:39:06
  TRACK 26 AUDIO
    TITLE "0:"
    INDEX 01 00:40:24
  TRACK 27 AUDIO
    TITLE "4:cjc172_1068"
    INDEX 01 00:40:39
  TRACK 28 AUDIO
    TITLE "0:"
    INDEX 01 00:41:64
  TRACK 29 AUDIO
    TITLE "5:cjc172_1069"
    INDEX 01 00:41:74
  TRACK 30 AUDIO
    TITLE "0:"
    INDEX 01 00:48:09
  TRACK 31 AUDIO
    TITLE "3:cjc172_1070"
    INDEX 01 00:48:72
  TRACK 32 AUDIO
    TITLE "0:"
    INDEX 01 00:49:70
  TRACK 33 AUDIO
    TITLE "4:cjc172_1071"
    INDEX 01 00:50:10
  TRACK 34 AUDIO
    TITLE "0:"
    INDEX 01 00:51:10
  TRACK 35 AUDIO
    TITLE "5:cjc172_1072"
    INDEX 01 00:51:23
  TRACK 36 AUDIO
    TITLE "0:"
    INDEX 01 00:57:55
  TRACK 37 AUDIO
    TITLE "3:cjc172_1073"
    INDEX 01 00:58:35
  TRACK 38 AUDIO
    TITLE "0:"
    INDEX 01 00:59:44
  TRACK 39 AUDIO
    TITLE "4:cjc172_1074"
    INDEX 01 00:59:60
  TRACK 40 AUDIO
    TITLE "0:"
    INDEX 01 01:02:00
  TRACK 41 AUDIO
    TITLE "5:cjc172_1075"
    INDEX 01 01:02:15
  TRACK 42 AUDIO
    TITLE "0:"
    INDEX 01 01:06:60
  TRACK 43 AUDIO
    TITLE "3:cjc172_1076"
    INDEX 01 01:07:38
  TRACK 44 AUDIO
    TITLE "0:"
    INDEX 01 01:08:53
  TRACK 45 AUDIO
    TITLE "4:cjc172_1077"
    INDEX 01 01:08:69
  TRACK 46 AUDIO
    TITLE "0:"
    INDEX 01 01:09:70
  TRACK 47 AUDIO
    TITLE "5:cjc172_1078"
    INDEX 01 01:10:13
  TRACK 48 AUDIO
    TITLE "0:"
    INDEX 01 01:14:40
  TRACK 49 AUDIO
    TITLE "3:cjc172_1079"
    INDEX 01 01:15:18
  TRACK 50 AUDIO
    TITLE "0:"
    INDEX 01 01:16:27
  TRACK 51 AUDIO
    TITLE "4:cjc172_1080"
    INDEX 01 01:16:45
  TRACK 52 AUDIO
    TITLE "0:"
    INDEX 01 01:17:62
  TRACK 53 AUDIO
    TITLE "5:cjc172_1081"
    INDEX 01 01:18:03
  TRACK 54 AUDIO
    TITLE "0:"
    INDEX 01 01:24:23
  TRACK 55 AUDIO
    TITLE "3:cjc172_1082"
    INDEX 01 01:25:01
  TRACK 56 AUDIO
    TITLE "0:"
    INDEX 01 01:26:20
  TRACK 57 AUDIO
    TITLE "4:cjc172_1083"
    INDEX 01 01:26:33
  TRACK 58 AUDIO
    TITLE "0:"
    INDEX 01 01:29:12
  TRACK 59 AUDIO
    TITLE "5:cjc172_1084"
    INDEX 01 01:29:28
  TRACK 60 AUDIO
    TITLE "0:"
    INDEX 01 01:35:30
